<?xml version="1.0" encoding="UTF-8"?>
<svg id="Layer_1" data-name="Layer 1" xmlns="http://www.w3.org/2000/svg" viewBox="0 0 684.19 700" fill="#00AD98" >
  <path d="M529.81,546.26l-101.13-30.21c-12.74-3.8-21.63-15.75-21.63-29.04v-26.07l.03-.02c9.88-5.71,19.35-12.4,28.18-19.87l18.42,2.05,78.17,78.17c6.01,6.01,14,9.31,22.52,9.31s16.52-3.31,22.52-9.31c6.02-6.01,9.33-14.01,9.33-22.52s-3.31-16.51-9.33-22.52l-78.16-78.16-4.19-37.75c-.16-1.48-.43-3-.79-4.54,3.34-9.62,5.95-19.57,7.75-29.59h14.84c22.79,0,41.34-18.54,41.34-41.34v-19.46c0-15.54-8.55-29.55-22.36-36.71v-26.31c0-33.75-8.48-67.16-24.52-96.62-2.96-5.44-9.81-7.46-15.25-4.5-5.44,2.97-7.46,9.81-4.5,15.25,14.25,26.17,21.79,55.86,21.79,85.86v21.68h-11.55c-15.83-79.95-86.22-137.93-167.79-138.15,31.47-14.28,66.07-22.76,100.37-24.58l9.97-.53c9.45,7.4,18.16,15.74,25.91,24.8,1.95,2.28,4.68,3.67,7.67,3.9,3,.23,5.9-.71,8.18-2.66,2.28-1.95,3.67-4.68,3.9-7.67.23-2.99-.71-5.9-2.66-8.18-9.64-11.27-20.54-21.5-32.37-30.38-.27-.22-.56-.43-.81-.59C418.52,13.88,376.81.08,333.02.08,221.48.08,130.74,90.82,130.74,202.36v26.31c-13.81,7.16-22.36,21.17-22.36,36.71v19.46c0,22.79,18.54,41.34,41.34,41.34h15.18c10.56,55.99,44.8,104.34,94.1,132.84v27.99c0,13.29-8.9,25.24-21.63,29.04l-33.89,10.12c-5.94,1.77-9.33,8.05-7.56,13.99,1.77,5.94,8.05,9.33,13.99,7.56l33.89-10.12c22.19-6.63,37.69-27.43,37.69-50.59v-16c16.63,7.42,35.04,11.33,53.35,11.33,17.19,0,33.92-3.29,49.74-9.78v14.44c0,23.16,15.5,43.96,37.69,50.59l101.13,30.21c31.51,9.41,53.52,38.95,53.52,71.84v19.86c0,9.88-8.04,17.93-17.93,17.93h-65.7v-65.6c0-6.2-5.04-11.24-11.24-11.24s-11.24,5.04-11.24,11.24v7.73H207.38v-7.73c0-6.2-5.04-11.24-11.24-11.24s-11.24,5.04-11.24,11.24v65.6h-77.81c-9.89,0-17.93-8.04-17.93-17.93v-19.86c0-32.89,22.01-62.43,53.52-71.84l19.38-5.79c5.94-1.78,9.33-8.05,7.55-13.99-.86-2.88-2.79-5.25-5.43-6.68-2.64-1.43-5.68-1.74-8.56-.88l-19.38,5.79c-20.25,6.05-37.64,18.21-50.27,35.16-12.63,16.95-19.3,37.09-19.3,58.23v19.86c0,22.28,18.13,40.41,40.42,40.41h119.82c6.2,0,11.24-5.04,11.24-11.24s-5.04-11.24-11.24-11.24h-19.52v-35.38h263.4v35.38h-199.82c-6.2,0-11.24,5.04-11.24,11.24s5.04,11.24,11.24,11.24h288.01c22.28,0,40.41-18.13,40.41-40.41v-19.86c0-21.14-6.68-41.28-19.3-58.23-12.63-16.95-30.01-29.11-50.27-35.16ZM161.5,257.42v6.45h-8.29c-6.2,0-11.24,5.04-11.24,11.24s5.04,11.24,11.24,11.24h8.29v3.71c0,4.38.17,8.96.5,13.62h-12.27c-10.39,0-18.85-8.46-18.85-18.85v-19.46c0-10.39,8.46-18.85,18.85-18.85h12.13c-.23,3.71-.35,7.36-.35,10.89ZM513.48,471.1l13.24-13.24,34.26,34.27c1.77,1.77,2.74,4.12,2.74,6.62s-.97,4.85-2.74,6.62c-1.77,1.77-4.12,2.74-6.62,2.74s-4.86-.97-6.62-2.74l-34.26-34.26ZM474.74,432.36l13.24-13.24,22.84,22.84-13.24,13.24-22.84-22.84ZM183.98,257.42c0-82.18,66.86-149.04,149.04-149.04s149.04,66.86,149.04,149.04v34.54c0,13.45-1.62,26.97-4.81,40.2-.03-.02-.06-.04-.09-.06-9.75-6.36-21.71-8-32.81-4.51-29.13,9.15-51.98,32.01-61.14,61.13-3.49,11.1-1.85,23.06,4.51,32.81,4.18,6.41,10.02,11.34,16.98,14.37-3.13,2.09-6.05,3.91-8.88,5.55l-6.85,3.96c-32.8,18.97-73.73,19.29-106.82.82l-9.62-5.37c-54.62-30.48-88.55-88.26-88.55-150.81v-32.65ZM404.66,395.47c6.95-22.12,24.31-39.48,46.43-46.43,1.61-.51,3.26-.76,4.9-.76,3.12,0,6.2.9,8.89,2.65,4.1,2.67,6.76,6.99,7.3,11.85l4.03,36.3-21.5,21.5-36.3-4.03c-4.86-.54-9.18-3.2-11.85-7.3-2.67-4.1-3.36-9.12-1.9-13.79ZM295.56,80.32l-46.04,27.25c-.23.14-.45.29-.6.4-43.8,24.75-74.43,67.02-84.15,116.07h-11.55v-21.68c0-99.14,80.66-179.8,179.8-179.8,27.17,0,54.31,6.27,78.72,18.15-40.83,5.08-80.93,18.74-116.18,39.61ZM504.55,291.96v-5.61h8.29c6.2,0,11.24-5.04,11.24-11.24s-5.04-11.24-11.24-11.24h-8.29v-6.45c0-3.53-.12-7.19-.35-10.89h12.13c10.39,0,18.85,8.46,18.85,18.85v19.46c0,10.39-8.46,18.85-18.85,18.85h-12.15c.24-3.98.37-7.92.37-11.73Z"/>
  <path d="M94.76,496.94l5.05-17.36c.8-2.76,2.93-4.89,5.69-5.69l17.36-5.05c10.88-3.17,18.19-12.91,18.19-24.24s-7.31-21.07-18.19-24.24l-17.36-5.05c-2.76-.8-4.89-2.93-5.69-5.68l-5.05-17.37c-3.17-10.88-12.91-18.19-24.24-18.19s-21.07,7.31-24.24,18.19l-5.05,17.36c-.8,2.76-2.93,4.89-5.69,5.69l-17.37,5.05c-10.88,3.17-18.19,12.91-18.19,24.24s7.31,21.07,18.19,24.24l17.36,5.05c2.76.8,4.89,2.93,5.69,5.69l5.05,17.37c3.17,10.88,12.91,18.19,24.24,18.19,11.33,0,21.07-7.31,24.24-18.19ZM62.83,473.29c-2.96-10.18-10.81-18.03-21-21l-17.36-5.05c-1.33-.39-1.98-1.25-1.98-2.64s.65-2.25,1.98-2.64l17.37-5.05c10.18-2.96,18.03-10.82,21-21l5.05-17.36c.39-1.33,1.25-1.98,2.64-1.98s2.26.65,2.64,1.98l5.05,17.37c2.96,10.18,10.81,18.03,21,20.99l17.36,5.05c1.33.39,1.98,1.25,1.98,2.64s-.65,2.26-1.98,2.64l-17.36,5.05c-10.18,2.96-18.03,10.81-20.99,21l-5.05,17.36c-.39,1.33-1.25,1.98-2.65,1.98s-2.25-.65-2.64-1.98l-5.05-17.37Z"/>
  <path d="M666,118.34l-17.36-5.05c-2.76-.8-4.89-2.93-5.69-5.69l-5.05-17.37c-3.17-10.88-12.91-18.19-24.24-18.19s-21.07,7.31-24.24,18.19l-5.05,17.36c-.8,2.76-2.93,4.89-5.69,5.69l-17.37,5.05c-10.88,3.17-18.19,12.91-18.19,24.24s7.31,21.07,18.19,24.24l17.36,5.05c2.76.8,4.89,2.93,5.69,5.69l5.05,17.37c3.17,10.88,12.91,18.19,24.24,18.19s21.07-7.31,24.24-18.19l5.05-17.36c.8-2.76,2.93-4.89,5.69-5.69l17.37-5.05c10.88-3.17,18.19-12.91,18.19-24.24,0-11.33-7.31-21.07-18.19-24.24ZM605.97,171.26c-2.96-10.18-10.81-18.03-21-21l-17.36-5.05c-1.34-.39-1.99-1.25-1.99-2.65s.65-2.25,1.98-2.64l17.36-5.05c10.18-2.96,18.03-10.81,21-21l5.05-17.36c.39-1.33,1.25-1.98,2.64-1.98h0c1.39,0,2.26.65,2.64,1.98l5.05,17.37c2.96,10.18,10.81,18.03,21,20.99l17.36,5.05c1.34.39,1.99,1.25,1.98,2.64,0,1.39-.65,2.25-1.98,2.64l-17.37,5.05c-10.18,2.96-18.03,10.81-20.99,21l-5.05,17.36c-.39,1.33-1.25,1.98-2.65,1.98s-2.25-.65-2.64-1.98l-5.05-17.37Z"/>
  <path d="M287.64,291.21l3.01-1.98c5.18-3.41,6.61-10.4,3.2-15.58-3.42-5.18-10.4-6.61-15.58-3.2l-3.01,1.98c-11.9,7.84-27.28,7.84-39.18,0l-3.01-1.98c-5.18-3.41-12.16-1.98-15.58,3.2-3.41,5.18-1.98,12.16,3.2,15.58l3.01,1.99c9.53,6.28,20.58,9.6,31.96,9.6s22.44-3.32,31.96-9.6Z"/>
  <path d="M375.39,289.23l3.01,1.99c9.53,6.28,20.58,9.6,31.96,9.6s22.44-3.32,31.96-9.6l3.01-1.98c5.18-3.41,6.61-10.4,3.2-15.58-3.41-5.18-10.4-6.61-15.58-3.2l-3.01,1.98c-11.9,7.84-27.28,7.84-39.18,0l-3.01-1.98c-5.18-3.41-12.16-1.98-15.58,3.2-3.41,5.18-1.98,12.16,3.2,15.58Z"/>
  <path d="M298.05,394.18l3.01,1.98c9.53,6.28,20.58,9.6,31.96,9.6s22.44-3.32,31.96-9.6l3.01-1.98c5.18-3.41,6.61-10.4,3.2-15.58-3.42-5.18-10.4-6.61-15.58-3.2l-3.01,1.98c-11.9,7.84-27.28,7.84-39.18,0l-3.01-1.98c-5.18-3.41-12.16-1.98-15.58,3.2-3.41,5.18-1.98,12.16,3.2,15.58Z"/>
</svg>