<?xml version="1.0" encoding="UTF-8"?>
<svg id="Layer_1" data-name="Layer 1" xmlns="http://www.w3.org/2000/svg" viewBox="0 0 700 700" fill="#00AD98">
  <path d="M423.43,543.27h-.01c-6.31,0-11.42,5.13-11.42,11.44.06,44.87-2.51,93.37-22.04,112.92-6.39,6.4-14.51,9.51-24.82,9.51-6.32,0-11.49-12.57-14.01-20.07-5.42-16.14-9.2-38.9-13.2-63.01-5.57-33.54-11.33-68.21-22.72-96.06-14.22-34.75-35.58-52.37-63.48-52.37-62.88,0-80.28,85.5-94.26,154.2-4.62,22.7-8.99,44.14-14.31,59.17-5.09,14.34-9.52,18.14-11.15,18.14-5.41,0-19.78,0-30.9-43.93-8.43-33.31-13.14-83.66-17.63-149.01-4.12-59.96-20.52-93.93-35-123.89-13.93-28.84-25.97-53.76-26.01-97.69,2.39-56.65,18.44-97.55,47.69-121.55,36.47-29.92,82.17-23.2,82.63-23.12,6.22.99,12.07-3.24,13.08-9.46,1.01-6.23-3.22-12.1-9.45-13.11-2.26-.37-55.89-8.57-100.48,27.79C21.21,151.48,2.26,198.16-.39,261.89c0,.16,0,.32,0,.47,0,49.31,13.74,77.76,28.29,107.88,14.24,29.48,28.96,59.96,32.78,115.51,4.57,66.58,9.43,118.09,18.27,153.05,6.65,26.27,19.37,61.19,53.06,61.19,28.41,0,37-42.19,47.87-95.61,12.32-60.55,27.66-135.9,71.86-135.9s53.59,68.7,63.66,129.32c4.16,25.03,8.08,48.67,14.08,66.54,2.96,8.82,11.97,35.65,35.68,35.65,16.46,0,30.25-5.46,40.99-16.21,26.62-26.66,28.79-80.62,28.72-129.1,0-6.31-5.12-11.42-11.43-11.42Z"/>
  <path d="M538.39,405.04c-.27-5.24-4.09-9.62-9.24-10.62-34.74-6.74-88.36-37.1-94.43-74.38-.9-5.53-5.68-9.59-11.28-9.59h-.06c-5.63.03-10.39,4.15-11.24,9.71-4.05,26.53-23.6,97.28-64.95,106.02-5.47,1.16-9.3,6.1-9.06,11.69.25,5.59,4.5,10.18,10.06,10.84,37.54,4.5,84.69,19.9,96.15,67.67,1.24,5.16,5.85,8.76,11.11,8.76.16,0,.32,0,.48-.01,5.46-.23,9.99-4.28,10.82-9.68,5.85-38.04,21.63-86.08,63.56-98.88,5.02-1.53,8.35-6.29,8.08-11.53ZM451.86,477.5c-12.53-18.34-33.5-35.39-68.23-45.14,22.44-19.35,35.73-50.87,43.11-75.04,16.62,22.99,44.11,40.6,69.68,50.91-22.94,16.7-36.54,42.83-44.56,69.27Z"/>
  <path d="M666.21,537.86c-9.8-6.53-28.38-33.98-26.94-67.81.24-5.7-3.75-10.7-9.36-11.73-5.61-1.03-11.12,2.23-12.91,7.64-8.16,24.61-53.28,34.6-69.98,36.38-4.88.51-8.88,4.08-9.96,8.87-1.07,4.79,1.03,9.73,5.23,12.27,23.29,14.12,39.01,45.21,36.49,61.55-.91,5.95,2.94,11.58,8.81,12.89.84.19,1.67.28,2.5.28,4.97,0,9.5-3.26,10.96-8.21,2.45-8.34,32.27-33.32,57.89-31.24,5.2.42,10.01-2.72,11.72-7.64,1.71-4.92-.12-10.37-4.46-13.26ZM597.84,559.33c-4.68-13.68-13.13-27.6-23.81-39,14.12-3.73,31.68-10.15,45.3-20.89,3.6,15.41,10.02,28.91,17.07,39.26-14.33,4.05-28.07,11.88-38.57,20.64Z"/>
  <path d="M485.69,328.15c1.04.29,2.08.43,3.11.43,4.99,0,9.58-3.29,11-8.33,31-110.05-28.15-156.1-30.68-158.01-5.05-3.8-12.21-2.78-16.01,2.26-3.8,5.04-2.78,12.21,2.26,16.01.5.37,49.23,38.39,22.43,133.55-1.71,6.08,1.83,12.39,7.9,14.1Z"/>
  <path d="M672.34,13.52h-257.87c-29.58,0-54.28,21.27-59.65,49.31h-42.88c-.08,0-.16.01-.24.01V28.05C311.71,12.58,299.13,0,283.66,0h-65.37c-15.47,0-28.06,12.59-28.06,28.06v96.88c0,29.58,21.27,54.28,49.31,59.65v39.89h-43.48c-24.32,0-44.11,19.79-44.11,44.11s19.79,44.11,44.11,44.11h109.82c24.32,0,44.11-19.79,44.11-44.11s-19.79-44.11-44.11-44.11h-43.48v-39.89c28.04-5.36,49.31-30.06,49.31-59.65v-39.26c.08,0,.16.01.24.01h42.88c5.36,28.04,30.06,49.31,59.65,49.31h257.87c15.47,0,28.06-12.59,28.06-28.06V41.58c0-15.47-12.59-28.06-28.06-28.06ZM327.13,268.57c0,11.71-9.53,21.25-21.25,21.25h-109.82c-11.71,0-21.25-9.53-21.25-21.25s9.53-21.25,21.25-21.25h109.82c11.71,0,21.25,9.53,21.25,21.25ZM288.85,124.94c0,20.89-16.99,37.88-37.88,37.88s-37.88-16.99-37.88-37.88V28.05c0-2.82,2.38-5.2,5.2-5.2h65.37c2.82,0,5.2,2.38,5.2,5.2v96.88ZM376.6,74.26c0-20.89,16.99-37.88,37.88-37.88h20.46v75.76h-20.46c-20.89,0-37.88-16.99-37.88-37.88ZM677.54,106.95c0,2.82-2.38,5.2-5.2,5.2h-214.55V36.38h214.55c2.82,0,5.2,2.38,5.2,5.2v65.37Z"/>
</svg>