<?xml version="1.0" encoding="UTF-8"?>
<svg id="Layer_1" data-name="Layer 1" xmlns="http://www.w3.org/2000/svg" viewBox="0 0 700 700"  fill="#00AD98">
  <path d="M677.42,496.77h-135.48v-63.13c0-25.68-9.61-50.2-27.06-69.04-17.45-18.84-41.16-30.31-66.76-32.27l-42.53-3.27c-5.85-.45-10.42-5.39-10.42-11.26v-12.29c23.46-11.69,41.78-32.17,50.63-57.12h5.83c24.9,0,45.16-20.26,45.16-45.16s-20.26-45.16-45.16-45.16v-79.03c0-31.13-25.32-56.45-56.45-56.45h-90.32c-31.13,0-56.45,25.32-56.45,56.45v79.03c-24.9,0-45.16,20.26-45.16,45.16s20.26,45.16,45.16,45.16h5.83c8.85,24.94,27.17,45.43,50.63,57.12v12.29c0,5.86-4.58,10.81-10.42,11.26l-42.53,3.27c-1.17.09-2.33.22-3.5.35v-15.15c0-32.6-22.09-60.89-53.71-68.79l-14.03-3.51v118.01c-13.14,4.66-22.58,17.21-22.58,31.93v45.16c0,14.72,9.44,27.27,22.58,31.93v24.52c0,1.16.11,2.28.28,3.39-7.24-2.19-14.91-3.39-22.86-3.39h-31.2c-13.06,0-25.84,2.15-38.11,6.35-16.51-17.77-40.05-28.93-66.17-28.93h-14.46l3.51,14.03c6.86,27.46,5.76,56.17-3.19,83.01l-3.87,11.62C1.54,591.95,0,601.42,0,611,0,660.07,39.93,700,89,700h28.35c27.7,0,54.57-7.8,77.92-22.58h36.6c7.82,13.48,22.41,22.58,39.09,22.58h406.45c12.45,0,22.58-10.13,22.58-22.58v-158.06c0-12.45-10.13-22.58-22.58-22.58ZM474.19,496.77v-22.58h45.16v22.58h-45.16ZM338.71,180.64v22.58h-67.74v-56.45h158.06v56.45h-67.74v-22.58h-22.58ZM474.19,203.23c0,12.45-10.13,22.58-22.58,22.58h-.64c.41-3.71.64-7.47.64-11.29v-33.87c12.45,0,22.58,10.13,22.58,22.58ZM304.84,45.16h90.32c18.68,0,33.87,15.19,33.87,33.87v45.16h-158.06v-45.16c0-18.67,15.19-33.87,33.87-33.87ZM248.39,225.81c-12.45,0-22.58-10.13-22.58-22.58s10.13-22.58,22.58-22.58v33.87c0,3.82.23,7.58.64,11.29h-.64ZM271.79,225.81h156.43c-5.5,38.25-38.47,67.74-78.21,67.74s-72.72-29.49-78.21-67.74ZM350,316.13c7.76,0,15.31-.91,22.58-2.56v4.23c0,13.38,7.95,25.16,19.48,30.63l-42.06,42.06-42.06-42.06c11.52-5.47,19.48-17.25,19.48-30.63v-4.23c7.27,1.66,14.82,2.56,22.58,2.56ZM203.23,473.06c8.34-1.7,16.01-5.24,22.58-10.19v33.9h-22.58v-23.72ZM225.81,317.52v55.09c-6.57-4.94-14.24-8.49-22.58-10.19v-85.83c13.78,8.66,22.58,23.93,22.58,40.92ZM180.65,395.16c0-6.22,5.07-11.29,11.29-11.29,18.68,0,33.87,15.19,33.87,33.87s-15.19,33.87-33.87,33.87c-6.22,0-11.29-5.07-11.29-11.29v-45.16ZM225.81,519.36c12.45,0,22.58-10.13,22.58-22.58v-47.1c3.53,1.25,7.33,1.94,11.29,1.94h11.29c12.45,0,22.58-10.13,22.58-22.58v-22.58c0-12.45-10.13-22.58-22.58-22.58h-11.29c-3.96,0-7.76.69-11.29,1.94v-30.38c1.74-.25,3.48-.46,5.23-.6l26.75-2.06,69.63,69.63,69.63-69.63,26.75,2.06c40.92,3.15,72.97,37.76,72.97,78.8v17.97h-45.16v-29.19c0-7.28,2.84-14.13,7.98-19.27l-15.97-15.97c-9.41,9.41-14.6,21.93-14.6,35.24v74.36h-45.16c-12.45,0-22.58,10.13-22.58,22.58h-22.58c-40.04,0-76.07,17.46-100.89,45.16h-24.11c-2.53-17.58-10.87-33.3-22.99-45.16h12.51ZM248.39,417.74c0-6.22,5.07-11.29,11.29-11.29h11.29v22.58s0,0,0,0h-11.29c-6.22,0-11.29-5.06-11.29-11.29ZM361.29,541.94h22.58v67.74h-112.9c-4.92,0-9.66.8-14.09,2.26,16.92-41.04,57.34-70.01,104.42-70.01ZM117.36,677.42h-28.36c-36.62,0-66.42-29.8-66.42-66.42,0-7.15,1.15-14.22,3.41-21l3.87-11.61c8.64-25.91,10.93-53.32,6.8-80.13,28.46,6.04,50.37,30,53.32,59.46l-.57.28c-13.37,6.68-21.67,20.12-21.67,35.06,0,21.62,17.59,39.2,39.2,39.2,14.14,0,27.43-5.51,37.43-15.5l4.58-4.58c17.85,9.93,29.46,27.74,31.4,47.92-19.06,11.36-40.71,17.33-63,17.33ZM202.48,654.84c-3.65-27.53-20.54-51.49-45.89-64.17l-12.05-6.03-16.14,16.14c-5.73,5.73-13.36,8.89-21.47,8.89-9.16,0-16.62-7.46-16.62-16.62,0-6.34,3.52-12.03,9.19-14.87l13.39-6.7v-6.98c0-15.16-3.77-29.44-10.4-42,7.92-2.09,16.06-3.16,24.35-3.16h31.2c31.13,0,56.45,25.32,56.45,56.45v11.29h29.48c-11.56,19.94-18.19,43.08-18.19,67.74h-23.32ZM270.97,677.42c-12.45,0-22.58-10.13-22.58-22.58s10.13-22.58,22.58-22.58h112.9v45.16h-112.9ZM677.42,677.42h-270.97v-158.06h270.97v158.06s0,0,0,0Z"/>
  <circle cx="304.84" cy="169.35" r="11.29"/>
  <circle cx="395.16" cy="169.35" r="11.29"/>
  <polygon points="338.71 112.9 361.29 112.9 361.29 101.61 372.58 101.61 372.58 79.03 361.29 79.03 361.29 67.74 338.71 67.74 338.71 79.03 327.42 79.03 327.42 101.61 338.71 101.61 338.71 112.9"/>
  <path d="M541.94,203.23h33.87v11.29c0,18.68,15.19,33.87,33.87,33.87s33.87-15.19,33.87-33.87v-11.29h33.87c12.45,0,22.58-10.13,22.58-22.58,0-37.83-23.39-70.28-56.45-83.71v-17.91c0-14.72-9.44-27.27-22.58-31.93V0h-22.58v47.1c-13.14,4.66-22.58,17.21-22.58,31.93v17.9c-33.07,13.43-56.45,45.88-56.45,83.71,0,12.45,10.13,22.58,22.58,22.58ZM620.97,214.52c0,6.22-5.07,11.29-11.29,11.29s-11.29-5.07-11.29-11.29v-11.29h22.58v11.29ZM598.39,79.03c0-6.22,5.07-11.29,11.29-11.29s11.29,5.07,11.29,11.29v12.02c-3.7-.46-7.46-.73-11.29-.73s-7.59.27-11.29.73v-12.02ZM609.68,112.9c37.35,0,67.74,30.39,67.76,67.74h-135.5c0-37.35,30.39-67.74,67.74-67.74Z"/>
  <path d="M22.58,203.23h33.87v11.29c0,18.68,15.19,33.87,33.87,33.87s33.87-15.19,33.87-33.87v-11.29h33.87c12.45,0,22.58-10.13,22.58-22.58,0-37.83-23.39-70.28-56.45-83.71v-17.91c0-14.72-9.44-27.27-22.58-31.93V0h-22.58v47.1c-13.14,4.66-22.58,17.21-22.58,31.93v17.9C23.39,110.37,0,142.81,0,180.64,0,193.1,10.13,203.23,22.58,203.23ZM101.61,214.52c0,6.22-5.07,11.29-11.29,11.29s-11.29-5.07-11.29-11.29v-11.29h22.58v11.29ZM79.03,79.03c0-6.22,5.07-11.29,11.29-11.29s11.29,5.07,11.29,11.29v12.02c-3.7-.46-7.46-.73-11.29-.73s-7.59.27-11.29.73c0,0,0-12.02,0-12.02ZM90.32,112.9c37.35,0,67.74,30.39,67.76,67.74H22.58c0-37.35,30.39-67.74,67.74-67.74Z"/>
</svg>