<?xml version="1.0" encoding="UTF-8"?>
<svg id="Layer_1" data-name="Layer 1" xmlns="http://www.w3.org/2000/svg" xmlns:xlink="http://www.w3.org/1999/xlink" viewBox="0 0 723.57 1080">
  <defs>
    <style>
      .cls-1 {
        fill: url(#Dégradé_sans_nom_7);
        stroke-width: 0px;
      }
    </style>
    <linearGradient id="Dégradé_sans_nom_7" data-name="Dégradé sans nom 7" x1="110.45" y1="204.79" x2="495.12" y2="929.53" gradientUnits="userSpaceOnUse">
      <stop offset="0" stop-color="#00a2dc"/>
      <stop offset="1" stop-color="#00b8bc"/>
    </linearGradient>
  </defs>
  <path class="cls-1" d="M657.78,713.11h-44.17l-72.87-152.5h64.27c11.38,0,20.61-9.23,20.61-20.61h0c0-11.38-9.23-20.61-20.61-20.61h-83.97l-12.8-26.8h34.12c11.38,0,20.61-9.23,20.61-20.61s-9.23-20.61-20.61-20.61h-53.82l-40.37-84.47h94.18c11.38,0,20.61-9.23,20.61-20.61s-9.23-20.61-20.61-20.61h-113.88l-26.69-55.85c-23.91-50.03-95.12-50.03-119.03,0l-5.59,11.7h62.36c11.38,0,20.61,9.23,20.61,20.61s-9.23,20.61-20.61,20.61h-82.06l-41.76,87.4h21.58c11.38,0,20.61,9.23,20.61,20.61s-9.23,20.61-20.61,20.61h-41.28l-12.8,26.8h88.72c11.38,0,20.61,9.23,20.61,20.61s-9.23,20.61-20.61,20.61h-108.42l-77.64,162.47h40.94c11.38,0,20.61,9.23,20.61,20.61s-9.23,20.61-20.61,20.61h-60.64l-14.44,30.22c-20.92,43.78,10.99,94.4,59.51,94.4h18.86c25.45,0,48.64-14.65,59.57-37.64l93.53-196.69c23.86-50.18,95.28-50.18,119.14,0,20.81,43.77-11.1,94.29-59.57,94.29h-3.25c-25.9,0-49.41,15.16-60.09,38.76l-3.67,8.12c-19.76,43.66,12.16,93.16,60.09,93.16h237.48c48.14,0,79.87-49.83,59.93-93.37h24.55c11.38,0,20.61-9.23,20.61-20.61s-9.23-20.61-20.61-20.61Z"/>
</svg>