<?xml version="1.0" encoding="UTF-8"?>
<svg id="Layer_1" data-name="Layer 1" xmlns="http://www.w3.org/2000/svg" viewBox="0 0 683.51 700" fill="#00AD98">
  <path d="M503,55.53c-2.5-5.68-9.14-8.26-14.83-5.76-5.68,2.5-8.26,9.14-5.76,14.83,9.42,21.39,10.66,53.21-14.07,78.32l-126.6,126.38-112.7-112.5,27.97.09h.04c3.76,0,7.28-1.88,9.36-5.02l20.21-30.38,45.17,85.55c1.95,3.69,5.78,6,9.94,6,.08,0,.16,0,.24,0,4.26-.09,8.1-2.58,9.92-6.43l23.56-49.72h39.29c6.21,0,11.25-5.04,11.25-11.25s-5.04-11.25-11.25-11.25h-46.41c-4.35,0-8.3,2.5-10.16,6.43l-16.98,35.85-43.51-82.41c-1.85-3.51-5.41-5.78-9.38-5.98-3.97-.21-7.74,1.7-9.93,5l-27.34,41.09-43.2-.14c-14.16-19.76-17.08-45.05-7.31-68.37,11.2-26.75,36.15-43.37,65.12-43.37s54.78,17.39,65.66,44.3c1.72,4.25,5.84,7.03,10.43,7.03s8.71-2.78,10.43-7.03c10.88-26.91,36.66-44.3,65.66-44.3,14.93,0,28.97,4.33,40.59,12.53,5.08,3.58,12.09,2.37,15.67-2.71,3.58-5.07,2.37-12.09-2.71-15.67C455.97,5.76,437.45,0,417.84,0,387.02,0,358.98,14.89,341.75,39.25,324.53,14.89,296.48,0,265.66,0,227.46,0,194.56,21.91,179.79,57.18c-13.62,32.53-8.47,67.98,13.24,94.68.35.51.74.98,1.17,1.43,1.6,1.9,3.29,3.75,5.06,5.55l134.55,134.31c2.2,2.19,5.07,3.29,7.95,3.29s5.75-1.1,7.95-3.29l134.61-134.38c26.94-27.35,34.28-67.88,18.69-103.24Z"/>
  <path d="M303.85,613.99h-12.28l7.52-67.82c10.31-40.63,6.47-77.64-11.42-110-13.2-23.89-34.37-45.13-61.31-61.57l-23.29-39.47c-2.72-4.6-5.13-8.8-7.36-12.65-1.03-1.78-2.01-3.47-2.97-5.13l-33.07-175.9c-4.6-24.46-28.24-40.61-52.69-36.02-5.19.98-10.07,2.83-14.49,5.41l-.45-2.38c-.04-.22-.09-.43-.14-.65-7.22-28.49-32.51-37.5-52.96-33.82C17.4,77.9-2.79,96.75.32,125.27c.02.14.03.28.05.42l14.71,100.24c.9,6.15,6.61,10.4,12.76,9.49,6.15-.9,10.4-6.61,9.49-12.76l-14.67-100.02c-1.59-15.49,9.01-24.46,20.27-26.49,10-1.8,23.05,1.56,27.09,16.9l4.37,22.84c.02.09.03.18.05.28l24.98,130.63c.01.06.02.12.04.18l1.07,5.12c-9.62,7.86-13,21.66-7.56,33.22l42.33,90.93c.03.06.06.13.09.19.41.84.84,1.78,1.31,2.81,1.84,4.02,4.36,9.53,8.8,16.52l30.58,48.27c2.14,3.38,5.79,5.23,9.51,5.23,2.06,0,4.14-.56,6.01-1.75,5.25-3.32,6.81-10.27,3.48-15.52l-30.58-48.27c-3.62-5.71-5.69-10.23-7.35-13.86-.54-1.18-1.03-2.25-1.5-3.22l-42.31-90.87c-1.15-2.45-.27-5.4,2.02-6.71.31-.18.67-.35,1.07-.5.16-.05.31-.1.47-.15,5.9-2,19.33-1.16,31.05,7.82,10.48,8.03,15.96,16.28,24.45,30.83.01.03.03.05.04.08,1.2,2.06,2.46,4.25,3.81,6.58,2.26,3.91,4.71,8.17,7.47,12.84l24.73,41.93c.96,1.64,2.33,3,3.96,3.97,40.81,24.13,85.17,69.55,64.71,148.88-.13.52-.23,1.04-.29,1.57l-7.89,71.08H125.51l2.01-10.69c11.73-62.5.4-127.09-31.92-181.86-39.19-66.42-44.8-96.47-48.88-134.73-.02-.15-.03-.29-.06-.44l-2.76-18.79c-.9-6.15-6.62-10.4-12.76-9.5-6.15.9-10.4,6.61-9.5,12.76l2.72,18.57c4.26,39.83,10.53,73.51,51.85,143.55,29.55,50.08,39.91,109.13,29.18,166.28l-2.79,14.84h-14.61c-6.21,0-11.25,5.04-11.25,11.25v63.52c0,6.21,5.04,11.25,11.25,11.25h215.83c6.21,0,11.25-5.04,11.25-11.25v-63.52c0-6.21-5.04-11.25-11.25-11.25ZM122.04,265.06l-.54-2.58-24.17-126.36c3.37-4.45,8.24-7.52,13.82-8.57,12.27-2.3,24.13,5.8,26.43,18.07l25.12,133.63c-.36-.29-.71-.57-1.08-.86-12.87-9.87-27.41-13.71-39.59-13.33ZM292.61,677.51H99.27v-41.02h12.66s.03,0,.04,0c.02,0,.03,0,.05,0h166.97s.02,0,.04,0c.01,0,.03,0,.04,0h13.54v41.02Z"/>
  <path d="M644.56,74.02c-20.44-3.68-45.74,5.33-52.96,33.82-.05.21-.1.43-.14.65l-.45,2.38c-4.42-2.59-9.3-4.44-14.49-5.41-24.46-4.6-48.09,11.56-52.69,36.01l-33.07,175.9c-.96,1.66-1.95,3.36-2.97,5.14-2.22,3.85-4.64,8.05-7.36,12.65,0,0,0,.01-.01.02l-23.27,39.45c-26.48,16.16-59.62,44.36-72.73,88.86-1.76,5.96,1.65,12.21,7.61,13.97,1.06.31,2.13.46,3.18.46,4.86,0,9.34-3.17,10.78-8.07,11.46-38.89,41.74-63.54,65.12-77.36,1.63-.97,3-2.33,3.96-3.97l24.73-41.93s0-.01.01-.02c2.75-4.66,5.2-8.91,7.46-12.82,1.34-2.32,2.6-4.5,3.79-6.55.03-.05.06-.11.09-.16,8.47-14.52,13.96-22.76,24.42-30.78,11.72-8.99,25.15-9.82,31.05-7.82.15.05.3.1.46.15.4.15.76.32,1.07.5,2.28,1.32,3.17,4.27,2,6.75l-42.29,90.84c-.47.97-.96,2.04-1.5,3.22-1.66,3.63-3.73,8.14-7.35,13.86l-30.57,48.27c-3.32,5.25-1.76,12.2,3.48,15.52,1.87,1.18,3.95,1.75,6.01,1.75,3.73,0,7.37-1.85,9.51-5.23l30.57-48.27c4.43-7,6.96-12.5,8.8-16.52.47-1.03.9-1.96,1.31-2.81.03-.06.06-.13.09-.19l42.31-90.89c5.45-11.6,2.08-25.39-7.54-33.25l1.07-5.12c.01-.06.02-.12.04-.18l24.98-130.6c.02-.11.04-.22.06-.34l4.36-22.8c4.04-15.34,17.1-18.71,27.09-16.9,11.26,2.03,21.86,11,20.27,26.49l-24.01,163.64c-.02.15-.04.29-.06.44-4.09,38.26-9.7,68.31-48.88,134.73-32.31,54.77-43.65,119.36-31.92,181.86l2.01,10.69h-143.43l-7.89-71.08c-.06-.53-.16-1.05-.29-1.57-2.72-10.54-4.37-20.89-4.91-30.76-.34-6.2-5.65-10.96-11.84-10.62-6.2.34-10.96,5.64-10.62,11.84.61,11.1,2.42,22.65,5.39,34.36l7.53,67.82h-12.28c-6.21,0-11.25,5.04-11.25,11.25v63.52c0,6.21,5.04,11.25,11.25,11.25h215.83c6.21,0,11.25-5.04,11.25-11.25v-63.52c0-6.21-5.04-11.25-11.25-11.25h-14.61l-2.79-14.84c-10.73-57.15-.36-116.2,29.18-166.28,41.32-70.03,47.59-103.72,51.85-143.55l24.01-163.64c.02-.14.04-.28.05-.42,3.11-28.52-17.08-47.37-38.62-51.25ZM562.01,262.48l-.54,2.58c-12.17-.38-26.72,3.46-39.59,13.33-.37.29-.72.57-1.08.86l25.12-133.63c2.31-12.27,14.16-20.37,26.43-18.07,5.58,1.05,10.45,4.12,13.82,8.57l-24.17,126.36ZM584.24,677.51h-193.34v-41.02h13.57s0,0,.01,0c0,0,0,0,.01,0h167s.03,0,.05,0c.01,0,.03,0,.04,0h12.66v41.02Z"/>
</svg>