<?xml version="1.0" encoding="UTF-8"?>
<svg id="Layer_1" data-name="Layer 1" xmlns="http://www.w3.org/2000/svg" viewBox="0 0 700 700" fill="#00AD98">
  <path d="M346,72.69l7.39,5.8c-2.7,6.97-3.36,14.72-1.88,22.5,2.14,11.29,8.54,21.61,18.02,29.05,8.72,6.84,19.4,10.61,30.07,10.61,6.98,0,13.64-1.59,19.5-4.63-3.99,16.5,2.85,35.17,17.57,46.74,8.76,6.87,19.47,10.66,30.16,10.66,1.78,0,3.57-.11,5.32-.32,4.95-.6,9.74-2.07,14.05-4.31-1.36,5.63-1.5,11.65-.36,17.63,2.14,11.29,8.53,21.6,18.01,29.04,8.75,6.88,19.46,10.67,30.15,10.67,1.77,0,3.55-.11,5.3-.32,6.72-.81,13.05-3.19,18.39-6.91l7.41,5.82c4.62,3.62,10.17,5.54,16.06,5.54,8.07,0,15.57-3.62,20.55-9.94l20.51-26.11c8.8-11.3,6.81-27.71-4.43-36.58l-9.13-7.16c8.87-19.54,3.2-43.06-13.78-56.39l-55.69-43.71,22.5-28.68,125.83,13.93c2.98.33,5.9-.52,8.24-2.39,2.34-1.88,3.82-4.55,4.15-7.53.68-6.15-3.77-11.71-9.92-12.39l-132.04-14.62c-3.89-.43-7.65,1.15-10.06,4.23l-26.35,33.58-55.03-43.19c-17-13.37-41.2-13.3-58.06,0l-9.78-7.68c-5.49-4.31-12.33-6.21-19.28-5.36-6.91.85-13.06,4.32-17.29,9.76l-20.48,26.07c-4.31,5.49-6.21,12.34-5.36,19.28.85,6.91,4.32,13.05,9.77,17.3ZM427.13,28c8.34-3.92,18.1-2.85,25.49,2.97,0,0,0,0,0,0l63.72,50.01s.11.1.15.13c.03.02.07.05.11.07l64.4,50.55c7.24,5.68,10.65,15.09,8.91,24.04L427.13,28ZM403.56,117.89c-6.61,1.26-14.08-.73-20.19-5.51-5.21-4.08-8.7-9.61-9.82-15.56-.17-.93-.29-1.85-.34-2.76l30.35,23.83ZM537.85,223.34c-.42.08-.84.14-1.27.19-6.39.77-13.28-1.31-18.89-5.72-5.21-4.08-8.7-9.61-9.82-15.56-.17-.91-.28-1.82-.34-2.72l30.32,23.81ZM359.25,49.97l20.51-26.11c.77-.98,1.8-1.25,2.35-1.31.99-.12,1.93.14,2.69.74l219.09,171.97c1.53,1.2,1.82,3.6.63,5.12l-20.46,26.05c-1.25,1.58-3.55,1.87-5.13.63l-14.5-11.39c-.13-.12-.26-.23-.39-.34-.13-.1-.27-.2-.43-.3l-54.41-42.72s-.17-.14-.21-.17l-67.06-52.66s-.03-.02-.05-.04l-82.06-64.44c-.98-.77-1.24-1.8-1.31-2.35-.12-.97.14-1.93.74-2.69ZM470.71,170.62c-.42.08-.85.14-1.28.2-6.4.77-13.29-1.31-18.91-5.71-6.09-4.79-9.8-11.58-10.14-18.3l30.33,23.81Z"/>
  <path d="M260.41,80.76h-61.7c-6.19,0-11.22,5.03-11.22,11.22s5.03,11.22,11.22,11.22h61.7c6.19,0,11.22-5.03,11.22-11.22,0-3-1.17-5.82-3.29-7.93-2.12-2.12-4.94-3.29-7.94-3.29Z"/>
  <path d="M260.41,48.87h-61.7c-6.19,0-11.22,5.03-11.22,11.22s5.03,11.22,11.22,11.22h61.7c6.19,0,11.22-5.03,11.22-11.22s-5.03-11.22-11.22-11.22Z"/>
  <path d="M11.26,235.93h281.63c6.19,0,11.22-5.03,11.22-11.22V23.03c0-6.19-5.03-11.22-11.22-11.22H11.26C5.07,11.81.04,16.84.04,23.03v201.69c0,6.19,5.03,11.22,11.22,11.22ZM22.48,213.49V34.25h259.18v179.24H22.48Z"/>
  <path d="M166.24,85.96h-20.13v-20.13c0-6.19-5.03-11.22-11.22-11.22h-53.41c-6.19,0-11.22,5.03-11.22,11.22v20.13h-20.13c-6.19,0-11.22,5.03-11.22,11.22v53.41c0,6.19,5.03,11.22,11.22,11.22h20.13v20.13c0,6.19,5.03,11.22,11.22,11.22h53.41c6.19,0,11.22-5.03,11.22-11.22v-20.13h20.13c6.19,0,11.22-5.03,11.22-11.22v-53.41c0-6.19-5.04-11.22-11.22-11.22ZM81.48,139.37h-20.13v-30.97h20.13c6.19,0,11.22-5.03,11.22-11.22v-20.13h30.97v20.13c0,6.19,5.03,11.22,11.22,11.22h20.13v30.97h-20.13c-6.19,0-11.22,5.03-11.22,11.22v20.13h-30.97v-20.13c0-6.19-5.03-11.22-11.22-11.22Z"/>
  <path d="M672.68,413.88c9.81-11.51,15.17-25.98,15.17-41.17,0-35.04-28.51-63.55-63.55-63.55h-34.32c-22.26,0-42.94,11.74-54.45,30.78-43.91-36.12-86.24-29.88-127.3-23.82-16.11,2.38-32.76,4.83-49.03,4.36l-110.52-53.42c-18.28-8.85-38.96-6.94-55.32,5.12l-94,69.32-5.21-11.91c-5.11-11.73-12.84-29.45-33-29.45h-15.08c-18.71,0-33.94,15.22-33.94,33.93v64.67c0,6.2,1.53,12.28,4.44,17.71-10,4.58-16.59,14.69-16.59,25.75v39.95c0,15.63,12.71,28.34,28.34,28.34h.5v13.34c0,19.71,16.04,35.75,35.75,35.75h15.04v129.19c0,6.19,5.03,11.22,11.22,11.22h62.47c6.19,0,11.22-5.03,11.22-11.22v-129.19h370.9v129.19c0,6.19,5.03,11.22,11.22,11.22h62.47c6.19,0,11.22-5.03,11.22-11.22v-129.19h15.04c19.71,0,35.75-16.04,35.75-35.75v-13.34h.5c15.63,0,28.34-12.71,28.34-28.34v-39.95c0-15.29-12.17-27.78-27.32-28.32ZM597.92,559.59v117.97h-40.03v-117.97h40.03ZM102.07,677.56v-117.97h40.03v117.97s-40.03,0-40.03,0ZM648.71,510.5v13.34c0,7.34-5.97,13.31-13.31,13.31H64.59c-7.34,0-13.31-5.97-13.31-13.31v-13.34h597.42ZM624.3,413.87h-34.32c-22.69,0-41.15-18.46-41.15-41.15,0-22.67,18.46-41.11,41.15-41.11h34.32c22.67,0,41.11,18.44,41.11,41.11s-18.44,41.15-41.11,41.15ZM288.64,356.83c0-6.19-5.03-11.22-11.22-11.22h-51.67l15.05-10.88c5.01-3.62,6.14-10.65,2.52-15.67-3.63-5.01-10.65-6.14-15.67-2.52l-40.21,29.07h-55.84l75.08-55.37c9.68-7.13,21.42-8.21,32.23-2.98l112.64,54.45c1.38.66,2.84,1.04,4.37,1.11,19.13.88,37.69-1.86,55.68-4.51,41.37-6.1,77.13-11.37,115.62,24.18-.56,3.42-.84,6.86-.84,10.23,0,15.17,5.36,29.64,15.16,41.15h-29.67c1.9-4.48,2.86-9.23,2.86-14.15,0-20.18-16.42-36.59-36.6-36.59h-155.87c-20.18,0-36.6,16.42-36.6,36.59,0,4.92.96,9.67,2.86,14.15H49.71c-8.34,0-15.12-6.78-15.12-15.12v-64.67c0-6.34,5.16-11.49,11.49-11.49h15.08c4.29,0,6.96,3.44,12.43,15.99l9.95,22.75c1.79,4.09,5.82,6.73,10.28,6.73h3.66c.28,0,.55-.03.83-.06h.05c.37.03.74.06,1.12.06h177.93c6.19,0,11.22-5.03,11.22-11.22ZM492.29,399.71c0,7.8-6.35,14.15-14.15,14.15h-155.87c-7.8,0-14.15-6.35-14.15-14.15s6.35-14.15,14.15-14.15h155.87c7.8,0,14.15,6.35,14.15,14.15ZM671.65,436.31c3.2,0,5.9,2.7,5.9,5.9v39.95c0,3.2-2.7,5.9-5.9,5.9H28.34c-3.2,0-5.9-2.7-5.9-5.9v-39.95c0-3.2,2.7-5.9,5.9-5.9h643.31Z"/>
  <path d="M260.41,112.65h-61.7c-6.19,0-11.22,5.03-11.22,11.22s5.03,11.22,11.22,11.22h61.7c6.19,0,11.22-5.03,11.22-11.22s-5.03-11.22-11.22-11.22Z"/>
  <path d="M260.41,176.47h-61.7c-6.19,0-11.22,5.03-11.22,11.22s5.03,11.22,11.22,11.22h61.7c6.19,0,11.22-5.03,11.22-11.22s-5.03-11.22-11.22-11.22Z"/>
  <path d="M260.41,144.54h-61.7c-6.19,0-11.22,5.03-11.22,11.22s5.03,11.22,11.22,11.22h61.7c6.19,0,11.22-5.03,11.22-11.22s-5.03-11.22-11.22-11.22Z"/>
</svg>